<?xml version="1.0" encoding="UTF-8" standalone="no"?>
<!DOCTYPE svg PUBLIC "-//W3C//DTD SVG 1.1//EN"
 "http://www.w3.org/Graphics/SVG/1.1/DTD/svg11.dtd">
<!-- Generated by graphviz version 2.43.0 (0)
 -->
<!-- Title: G Pages: 1 -->
<svg width="990pt" height="782pt"
 viewBox="0.00 0.00 990.00 782.00" xmlns="http://www.w3.org/2000/svg" xmlns:xlink="http://www.w3.org/1999/xlink">
<g id="graph0" class="graph" transform="scale(1 1) rotate(0) translate(4 778)">
<title>G</title>
<polygon fill="white" stroke="transparent" points="-4,4 -4,-778 986,-778 986,4 -4,4"/>
<g id="clust1" class="cluster">
<title>cluster_root</title>
<g id="a_clust1"><a xlink:title="eventq_index=0&#10;full_system=false&#10;sim_quantum=0&#10;time_sync_enable=false&#10;time_sync_period=100000000000&#10;time_sync_spin_threshold=100000000">
<path fill="#bab6ae" stroke="#000000" d="M20,-8C20,-8 962,-8 962,-8 968,-8 974,-14 974,-20 974,-20 974,-754 974,-754 974,-760 968,-766 962,-766 962,-766 20,-766 20,-766 14,-766 8,-760 8,-754 8,-754 8,-20 8,-20 8,-14 14,-8 20,-8"/>
<text text-anchor="middle" x="491" y="-750.8" font-family="Arial" font-size="14.00" fill="#000000">root </text>
<text text-anchor="middle" x="491" y="-735.8" font-family="Arial" font-size="14.00" fill="#000000">: Root</text>
</a>
</g>
</g>
<g id="clust2" class="cluster">
<title>cluster_board</title>
<g id="a_clust2"><a xlink:title="auto_unlink_shared_backstore=false&#10;cache_line_size=64&#10;eventq_index=0&#10;exit_on_work_items=true&#10;init_param=0&#10;m5ops_base=0&#10;mem_mode=timing&#10;mem_ranges=0:4294967296&#10;memories=board.memory.mem_ctrl.dram&#10;mmap_using_noreserve=false&#10;multi_thread=false&#10;&#10;um_work_ids=16&#10;&#13;eadfile=&#10;&#13;edirect_paths=&#10;shadow_rom_ranges=&#10;shared_backstore=&#10;symbolfile=&#10;thermal_components=&#10;thermal_model=Null&#10;work_begin_ckpt_count=0&#10;work_begin_cpu_id_exit=&#45;1&#10;work_begin_exit_count=0&#10;work_cpus_ckpt_count=0&#10;work_end_ckpt_count=0&#10;work_end_exit_count=0&#10;work_item_id=&#45;1&#10;workload=board.workload">
<path fill="#e4e7eb" stroke="#000000" d="M28,-16C28,-16 954,-16 954,-16 960,-16 966,-22 966,-28 966,-28 966,-708 966,-708 966,-714 960,-720 954,-720 954,-720 28,-720 28,-720 22,-720 16,-714 16,-708 16,-708 16,-28 16,-28 16,-22 22,-16 28,-16"/>
<text text-anchor="middle" x="491" y="-704.8" font-family="Arial" font-size="14.00" fill="#000000">board </text>
<text text-anchor="middle" x="491" y="-689.8" font-family="Arial" font-size="14.00" fill="#000000">: SimpleBoard</text>
</a>
</g>
</g>
<g id="clust6" class="cluster">
<title>cluster_board_processor</title>
<g id="a_clust6"><a xlink:title="eventq_index=0&#10;thermal_domain=Null">
<path fill="#bab6ae" stroke="#000000" d="M284,-314C284,-314 888,-314 888,-314 894,-314 900,-320 900,-326 900,-326 900,-662 900,-662 900,-668 894,-674 888,-674 888,-674 284,-674 284,-674 278,-674 272,-668 272,-662 272,-662 272,-326 272,-326 272,-320 278,-314 284,-314"/>
<text text-anchor="middle" x="586" y="-658.8" font-family="Arial" font-size="14.00" fill="#000000">processor </text>
<text text-anchor="middle" x="586" y="-643.8" font-family="Arial" font-size="14.00" fill="#000000">: SimpleProcessor</text>
</a>
</g>
</g>
<g id="clust7" class="cluster">
<title>cluster_board_processor_cores</title>
<g id="a_clust7"><a xlink:title="eventq_index=0&#10;thermal_domain=Null">
<path fill="#9f9c95" stroke="#000000" d="M292,-322C292,-322 880,-322 880,-322 886,-322 892,-328 892,-334 892,-334 892,-616 892,-616 892,-622 886,-628 880,-628 880,-628 292,-628 292,-628 286,-628 280,-622 280,-616 280,-616 280,-334 280,-334 280,-328 286,-322 292,-322"/>
<text text-anchor="middle" x="586" y="-612.8" font-family="Arial" font-size="14.00" fill="#000000">cores </text>
<text text-anchor="middle" x="586" y="-597.8" font-family="Arial" font-size="14.00" fill="#000000">: SimpleCore</text>
</a>
</g>
</g>
<g id="clust8" class="cluster">
<title>cluster_board_processor_cores_core</title>
<g id="a_clust8"><a xlink:title="branchPred=Null&#10;checker=Null&#10;clk_domain=board.clk_domain&#10;cpu_id=0&#10;decoder=board.processor.cores.core.decoder&#10;do_checkpoint_insts=true&#10;do_statistics_insts=true&#10;eventq_index=0&#10;function_trace=false&#10;function_trace_start=0&#10;interrupts=board.processor.cores.core.interrupts&#10;isa=board.processor.cores.core.isa&#10;max_insts_all_threads=0&#10;max_insts_any_thread=0&#10;mmu=board.processor.cores.core.mmu&#10;&#10;umThreads=1&#10;power_gating_on_idle=false&#10;power_model=&#10;power_state=board.processor.cores.core.power_state&#10;progress_interval=0&#10;pwr_gating_latency=300&#10;simpoint_start_insts=&#10;socket_id=0&#10;switched_out=false&#10;syscallRetryLatency=10000&#10;system=board&#10;tracer=board.processor.cores.core.tracer&#10;workload=board.processor.cores.core.workload">
<path fill="#bbc6d9" stroke="#000000" d="M300,-330C300,-330 872,-330 872,-330 878,-330 884,-336 884,-342 884,-342 884,-570 884,-570 884,-576 878,-582 872,-582 872,-582 300,-582 300,-582 294,-582 288,-576 288,-570 288,-570 288,-342 288,-342 288,-336 294,-330 300,-330"/>
<text text-anchor="middle" x="586" y="-566.8" font-family="Arial" font-size="14.00" fill="#000000">core </text>
<text text-anchor="middle" x="586" y="-551.8" font-family="Arial" font-size="14.00" fill="#000000">: RiscvTimingSimpleCPU</text>
</a>
</g>
</g>
<g id="clust9" class="cluster">
<title>cluster_board_processor_cores_core_mmu</title>
<g id="a_clust9"><a xlink:title="dtb=board.processor.cores.core.mmu.dtb&#10;eventq_index=0&#10;itb=board.processor.cores.core.mmu.itb&#10;pma_checker=board.processor.cores.core.mmu.pma_checker&#10;pmp=board.processor.cores.core.mmu.pmp">
<path fill="#bab6ae" stroke="#000000" d="M308,-338C308,-338 660,-338 660,-338 666,-338 672,-344 672,-350 672,-350 672,-524 672,-524 672,-530 666,-536 660,-536 660,-536 308,-536 308,-536 302,-536 296,-530 296,-524 296,-524 296,-350 296,-350 296,-344 302,-338 308,-338"/>
<text text-anchor="middle" x="484" y="-520.8" font-family="Arial" font-size="14.00" fill="#000000">mmu </text>
<text text-anchor="middle" x="484" y="-505.8" font-family="Arial" font-size="14.00" fill="#000000">: RiscvMMU</text>
</a>
</g>
</g>
<g id="clust10" class="cluster">
<title>cluster_board_processor_cores_core_mmu_itb</title>
<g id="a_clust10"><a xlink:title="entry_type=instruction&#10;eventq_index=0&#10;&#10;ext_level=Null&#10;pma_checker=board.processor.cores.core.mmu.pma_checker&#10;pmp=board.processor.cores.core.mmu.pmp&#10;size=64&#10;walker=board.processor.cores.core.mmu.itb.walker">
<path fill="#9f9c95" stroke="#000000" d="M500,-346C500,-346 652,-346 652,-346 658,-346 664,-352 664,-358 664,-358 664,-478 664,-478 664,-484 658,-490 652,-490 652,-490 500,-490 500,-490 494,-490 488,-484 488,-478 488,-478 488,-358 488,-358 488,-352 494,-346 500,-346"/>
<text text-anchor="middle" x="576" y="-474.8" font-family="Arial" font-size="14.00" fill="#000000">itb </text>
<text text-anchor="middle" x="576" y="-459.8" font-family="Arial" font-size="14.00" fill="#000000">: RiscvTLB</text>
</a>
</g>
</g>
<g id="clust11" class="cluster">
<title>cluster_board_processor_cores_core_mmu_itb_walker</title>
<g id="a_clust11"><a xlink:title="clk_domain=board.clk_domain&#10;eventq_index=0&#10;&#10;um_squash_per_cycle=4&#10;pma_checker=board.processor.cores.core.mmu.pma_checker&#10;pmp=board.processor.cores.core.mmu.pmp&#10;power_model=&#10;power_state=board.processor.cores.core.mmu.itb.walker.power_state&#10;system=board">
<path fill="#84827c" stroke="#000000" d="M508,-354C508,-354 644,-354 644,-354 650,-354 656,-360 656,-366 656,-366 656,-432 656,-432 656,-438 650,-444 644,-444 644,-444 508,-444 508,-444 502,-444 496,-438 496,-432 496,-432 496,-366 496,-366 496,-360 502,-354 508,-354"/>
<text text-anchor="middle" x="576" y="-428.8" font-family="Arial" font-size="14.00" fill="#000000">walker </text>
<text text-anchor="middle" x="576" y="-413.8" font-family="Arial" font-size="14.00" fill="#000000">: RiscvPagetableWalker</text>
</a>
</g>
</g>
<g id="clust13" class="cluster">
<title>cluster_board_processor_cores_core_mmu_dtb</title>
<g id="a_clust13"><a xlink:title="entry_type=data&#10;eventq_index=0&#10;&#10;ext_level=Null&#10;pma_checker=board.processor.cores.core.mmu.pma_checker&#10;pmp=board.processor.cores.core.mmu.pmp&#10;size=64&#10;walker=board.processor.cores.core.mmu.dtb.walker">
<path fill="#9f9c95" stroke="#000000" d="M316,-346C316,-346 468,-346 468,-346 474,-346 480,-352 480,-358 480,-358 480,-478 480,-478 480,-484 474,-490 468,-490 468,-490 316,-490 316,-490 310,-490 304,-484 304,-478 304,-478 304,-358 304,-358 304,-352 310,-346 316,-346"/>
<text text-anchor="middle" x="392" y="-474.8" font-family="Arial" font-size="14.00" fill="#000000">dtb </text>
<text text-anchor="middle" x="392" y="-459.8" font-family="Arial" font-size="14.00" fill="#000000">: RiscvTLB</text>
</a>
</g>
</g>
<g id="clust14" class="cluster">
<title>cluster_board_processor_cores_core_mmu_dtb_walker</title>
<g id="a_clust14"><a xlink:title="clk_domain=board.clk_domain&#10;eventq_index=0&#10;&#10;um_squash_per_cycle=4&#10;pma_checker=board.processor.cores.core.mmu.pma_checker&#10;pmp=board.processor.cores.core.mmu.pmp&#10;power_model=&#10;power_state=board.processor.cores.core.mmu.dtb.walker.power_state&#10;system=board">
<path fill="#84827c" stroke="#000000" d="M324,-354C324,-354 460,-354 460,-354 466,-354 472,-360 472,-366 472,-366 472,-432 472,-432 472,-438 466,-444 460,-444 460,-444 324,-444 324,-444 318,-444 312,-438 312,-432 312,-432 312,-366 312,-366 312,-360 318,-354 324,-354"/>
<text text-anchor="middle" x="392" y="-428.8" font-family="Arial" font-size="14.00" fill="#000000">walker </text>
<text text-anchor="middle" x="392" y="-413.8" font-family="Arial" font-size="14.00" fill="#000000">: RiscvPagetableWalker</text>
</a>
</g>
</g>
<g id="clust25" class="cluster">
<title>cluster_board_memory</title>
<g id="a_clust25"><a xlink:title="eventq_index=0&#10;thermal_domain=Null">
<path fill="#bab6ae" stroke="#000000" d="M136,-346C136,-346 252,-346 252,-346 258,-346 264,-352 264,-358 264,-358 264,-478 264,-478 264,-484 258,-490 252,-490 252,-490 136,-490 136,-490 130,-490 124,-484 124,-478 124,-478 124,-358 124,-358 124,-352 130,-346 136,-346"/>
<text text-anchor="middle" x="194" y="-474.8" font-family="Arial" font-size="14.00" fill="#000000">memory </text>
<text text-anchor="middle" x="194" y="-459.8" font-family="Arial" font-size="14.00" fill="#000000">: ChanneledMemory</text>
</a>
</g>
</g>
<g id="clust26" class="cluster">
<title>cluster_board_memory_mem_ctrl</title>
<g id="a_clust26"><a xlink:title="clk_domain=board.clk_domain&#10;command_window=10000&#10;disable_sanity_check=false&#10;dram=board.memory.mem_ctrl.dram&#10;eventq_index=0&#10;mem_sched_policy=frfcfs&#10;min_reads_per_switch=16&#10;min_writes_per_switch=16&#10;power_model=&#10;power_state=board.memory.mem_ctrl.power_state&#10;qos_policy=Null&#10;qos_priorities=1&#10;qos_priority_escalation=false&#10;qos_q_policy=fifo&#10;qos_requestors= &#160;&#160;&#160;&#160;&#160;&#160;&#160;&#160;&#160;&#160;&#160;&#160;&#160;&#160;&#10;qos_syncro_scheduler=false&#10;qos_turnaround_policy=Null&#10;static_backend_latency=10000&#10;static_frontend_latency=10000&#10;system=board&#10;write_high_thresh_perc=85&#10;write_low_thresh_perc=50">
<path fill="#9f9c95" stroke="#000000" d="M149,-354C149,-354 202,-354 202,-354 208,-354 214,-360 214,-366 214,-366 214,-432 214,-432 214,-438 208,-444 202,-444 202,-444 149,-444 149,-444 143,-444 137,-438 137,-432 137,-432 137,-366 137,-366 137,-360 143,-354 149,-354"/>
<text text-anchor="middle" x="175.5" y="-428.8" font-family="Arial" font-size="14.00" fill="#000000">mem_ctrl </text>
<text text-anchor="middle" x="175.5" y="-413.8" font-family="Arial" font-size="14.00" fill="#000000">: MemCtrl</text>
</a>
</g>
</g>
<g id="clust30" class="cluster">
<title>cluster_board_cache_hierarchy</title>
<g id="a_clust30"><a xlink:title="eventq_index=0&#10;thermal_domain=Null">
<path fill="#bab6ae" stroke="#000000" d="M36,-24C36,-24 946,-24 946,-24 952,-24 958,-30 958,-36 958,-36 958,-294 958,-294 958,-300 952,-306 946,-306 946,-306 36,-306 36,-306 30,-306 24,-300 24,-294 24,-294 24,-36 24,-36 24,-30 30,-24 36,-24"/>
<text text-anchor="middle" x="491" y="-290.8" font-family="Arial" font-size="14.00" fill="#000000">cache_hierarchy </text>
<text text-anchor="middle" x="491" y="-275.8" font-family="Arial" font-size="14.00" fill="#000000">: PrivateL1PrivateL2CacheHierarchy</text>
</a>
</g>
</g>
<g id="clust31" class="cluster">
<title>cluster_board_cache_hierarchy_membus</title>
<g id="a_clust31"><a xlink:title="clk_domain=board.clk_domain&#10;eventq_index=0&#10;forward_latency=4&#10;frontend_latency=3&#10;header_latency=1&#10;max_outstanding_snoops=512&#10;max_routing_table_size=512&#10;point_of_coherency=true&#10;point_of_unification=true&#10;power_model=&#10;power_state=board.cache_hierarchy.membus.power_state&#10;&#13;esponse_latency=2&#10;snoop_filter=board.cache_hierarchy.membus.snoop_filter&#10;snoop_response_latency=4&#10;system=board&#10;use_default_range=false&#10;width=64">
<path fill="#6f798c" stroke="#000000" d="M44,-32C44,-32 356,-32 356,-32 362,-32 368,-38 368,-44 368,-44 368,-248 368,-248 368,-254 362,-260 356,-260 356,-260 44,-260 44,-260 38,-260 32,-254 32,-248 32,-248 32,-44 32,-44 32,-38 38,-32 44,-32"/>
<text text-anchor="middle" x="200" y="-244.8" font-family="Arial" font-size="14.00" fill="#000000">membus </text>
<text text-anchor="middle" x="200" y="-229.8" font-family="Arial" font-size="14.00" fill="#000000">: SystemXBar</text>
</a>
</g>
</g>
<g id="clust34" class="cluster">
<title>cluster_board_cache_hierarchy_membus_badaddr_responder</title>
<g id="a_clust34"><a xlink:title="clk_domain=board.clk_domain&#10;eventq_index=0&#10;fake_mem=false&#10;pio_addr=0&#10;pio_latency=100000&#10;pio_size=8&#10;power_model=&#10;power_state=board.cache_hierarchy.membus.badaddr_responder.power_state&#10;&#13;et_bad_addr=true&#10;&#13;et_data16=65535&#10;&#13;et_data32=4294967295&#10;&#13;et_data64=18446744073709551615&#10;&#13;et_data8=255&#10;system=board&#10;update_data=false&#10;warn_access=">
<path fill="#c7a793" stroke="#000000" d="M52,-40C52,-40 166,-40 166,-40 172,-40 178,-46 178,-52 178,-52 178,-118 178,-118 178,-124 172,-130 166,-130 166,-130 52,-130 52,-130 46,-130 40,-124 40,-118 40,-118 40,-52 40,-52 40,-46 46,-40 52,-40"/>
<text text-anchor="middle" x="109" y="-114.8" font-family="Arial" font-size="14.00" fill="#000000">badaddr_responder </text>
<text text-anchor="middle" x="109" y="-99.8" font-family="Arial" font-size="14.00" fill="#000000">: BadAddr</text>
</a>
</g>
</g>
<g id="clust36" class="cluster">
<title>cluster_board_cache_hierarchy_l2buses</title>
<g id="a_clust36"><a xlink:title="clk_domain=board.clk_domain&#10;eventq_index=0&#10;forward_latency=0&#10;frontend_latency=1&#10;header_latency=1&#10;max_outstanding_snoops=512&#10;max_routing_table_size=512&#10;point_of_coherency=false&#10;point_of_unification=true&#10;power_model=&#10;power_state=board.cache_hierarchy.l2buses.power_state&#10;&#13;esponse_latency=1&#10;snoop_filter=board.cache_hierarchy.l2buses.snoop_filter&#10;snoop_response_latency=1&#10;system=board&#10;use_default_range=false&#10;width=32">
<path fill="#6f798c" stroke="#000000" d="M463,-170C463,-170 699,-170 699,-170 705,-170 711,-176 711,-182 711,-182 711,-248 711,-248 711,-254 705,-260 699,-260 699,-260 463,-260 463,-260 457,-260 451,-254 451,-248 451,-248 451,-182 451,-182 451,-176 457,-170 463,-170"/>
<text text-anchor="middle" x="581" y="-244.8" font-family="Arial" font-size="14.00" fill="#000000">l2buses </text>
<text text-anchor="middle" x="581" y="-229.8" font-family="Arial" font-size="14.00" fill="#000000">: L2XBar</text>
</a>
</g>
</g>
<g id="clust39" class="cluster">
<title>cluster_board_cache_hierarchy_l2&#45;cache&#45;0</title>
<g id="a_clust39"><a xlink:title="addr_ranges=0:18446744073709551615&#10;assoc=16&#10;clk_domain=board.clk_domain&#10;clusivity=mostly_incl&#10;compressor=Null&#10;data_latency=10&#10;demand_mshr_reserve=1&#10;eventq_index=0&#10;is_read_only=false&#10;max_miss_count=0&#10;move_contractions=true&#10;mshrs=20&#10;partitioning_manager=Null&#10;power_model=&#10;power_state=board.cache_hierarchy.l2&#45;cache&#45;0.power_state&#10;prefetcher=board.cache_hierarchy.l2&#45;cache&#45;0.prefetcher&#10;&#13;eplace_expansions=true&#10;&#13;eplacement_policy=board.cache_hierarchy.l2&#45;cache&#45;0.replacement_policy&#10;&#13;esponse_latency=1&#10;sequential_access=false&#10;size=1048576&#10;system=board&#10;tag_latency=10&#10;tags=board.cache_hierarchy.l2&#45;cache&#45;0.tags&#10;tgts_per_mshr=12&#10;warmup_percentage=0&#10;write_allocator=Null&#10;write_buffers=8&#10;writeback_clean=false">
<path fill="#9f9c95" stroke="#000000" d="M388,-40C388,-40 550,-40 550,-40 556,-40 562,-46 562,-52 562,-52 562,-118 562,-118 562,-124 556,-130 550,-130 550,-130 388,-130 388,-130 382,-130 376,-124 376,-118 376,-118 376,-52 376,-52 376,-46 382,-40 388,-40"/>
<text text-anchor="middle" x="469" y="-114.8" font-family="Arial" font-size="14.00" fill="#000000">l2&#45;cache&#45;0 </text>
<text text-anchor="middle" x="469" y="-99.8" font-family="Arial" font-size="14.00" fill="#000000">: L2Cache</text>
</a>
</g>
</g>
<g id="clust49" class="cluster">
<title>cluster_board_cache_hierarchy_l1i&#45;cache&#45;0</title>
<g id="a_clust49"><a xlink:title="addr_ranges=0:18446744073709551615&#10;assoc=8&#10;clk_domain=board.clk_domain&#10;clusivity=mostly_incl&#10;compressor=Null&#10;data_latency=1&#10;demand_mshr_reserve=1&#10;eventq_index=0&#10;is_read_only=false&#10;max_miss_count=0&#10;move_contractions=true&#10;mshrs=16&#10;partitioning_manager=Null&#10;power_model=&#10;power_state=board.cache_hierarchy.l1i&#45;cache&#45;0.power_state&#10;prefetcher=board.cache_hierarchy.l1i&#45;cache&#45;0.prefetcher&#10;&#13;eplace_expansions=true&#10;&#13;eplacement_policy=board.cache_hierarchy.l1i&#45;cache&#45;0.replacement_policy&#10;&#13;esponse_latency=1&#10;sequential_access=false&#10;size=131072&#10;system=board&#10;tag_latency=1&#10;tags=board.cache_hierarchy.l1i&#45;cache&#45;0.tags&#10;tgts_per_mshr=20&#10;warmup_percentage=0&#10;write_allocator=Null&#10;write_buffers=8&#10;writeback_clean=true">
<path fill="#9f9c95" stroke="#000000" d="M582,-40C582,-40 744,-40 744,-40 750,-40 756,-46 756,-52 756,-52 756,-118 756,-118 756,-124 750,-130 744,-130 744,-130 582,-130 582,-130 576,-130 570,-124 570,-118 570,-118 570,-52 570,-52 570,-46 576,-40 582,-40"/>
<text text-anchor="middle" x="663" y="-114.8" font-family="Arial" font-size="14.00" fill="#000000">l1i&#45;cache&#45;0 </text>
<text text-anchor="middle" x="663" y="-99.8" font-family="Arial" font-size="14.00" fill="#000000">: L1ICache</text>
</a>
</g>
</g>
<g id="clust59" class="cluster">
<title>cluster_board_cache_hierarchy_l1d&#45;cache&#45;0</title>
<g id="a_clust59"><a xlink:title="addr_ranges=0:18446744073709551615&#10;assoc=8&#10;clk_domain=board.clk_domain&#10;clusivity=mostly_incl&#10;compressor=Null&#10;data_latency=1&#10;demand_mshr_reserve=1&#10;eventq_index=0&#10;is_read_only=false&#10;max_miss_count=0&#10;move_contractions=true&#10;mshrs=16&#10;partitioning_manager=Null&#10;power_model=&#10;power_state=board.cache_hierarchy.l1d&#45;cache&#45;0.power_state&#10;prefetcher=board.cache_hierarchy.l1d&#45;cache&#45;0.prefetcher&#10;&#13;eplace_expansions=true&#10;&#13;eplacement_policy=board.cache_hierarchy.l1d&#45;cache&#45;0.replacement_policy&#10;&#13;esponse_latency=1&#10;sequential_access=false&#10;size=131072&#10;system=board&#10;tag_latency=1&#10;tags=board.cache_hierarchy.l1d&#45;cache&#45;0.tags&#10;tgts_per_mshr=20&#10;warmup_percentage=0&#10;write_allocator=Null&#10;write_buffers=8&#10;writeback_clean=false">
<path fill="#9f9c95" stroke="#000000" d="M776,-40C776,-40 938,-40 938,-40 944,-40 950,-46 950,-52 950,-52 950,-118 950,-118 950,-124 944,-130 938,-130 938,-130 776,-130 776,-130 770,-130 764,-124 764,-118 764,-118 764,-52 764,-52 764,-46 770,-40 776,-40"/>
<text text-anchor="middle" x="857" y="-114.8" font-family="Arial" font-size="14.00" fill="#000000">l1d&#45;cache&#45;0 </text>
<text text-anchor="middle" x="857" y="-99.8" font-family="Arial" font-size="14.00" fill="#000000">: L1DCache</text>
</a>
</g>
</g>
<!-- board_system_port -->
<g id="node1" class="node">
<title>board_system_port</title>
<path fill="#b6b8bc" stroke="#000000" d="M103.5,-398C103.5,-398 36.5,-398 36.5,-398 30.5,-398 24.5,-392 24.5,-386 24.5,-386 24.5,-374 24.5,-374 24.5,-368 30.5,-362 36.5,-362 36.5,-362 103.5,-362 103.5,-362 109.5,-362 115.5,-368 115.5,-374 115.5,-374 115.5,-386 115.5,-386 115.5,-392 109.5,-398 103.5,-398"/>
<text text-anchor="middle" x="70" y="-376.3" font-family="Arial" font-size="14.00" fill="#000000">system_port</text>
</g>
<!-- board_cache_hierarchy_membus_cpu_side_ports -->
<g id="node7" class="node">
<title>board_cache_hierarchy_membus_cpu_side_ports</title>
<path fill="#586070" stroke="#000000" d="M348,-214C348,-214 264,-214 264,-214 258,-214 252,-208 252,-202 252,-202 252,-190 252,-190 252,-184 258,-178 264,-178 264,-178 348,-178 348,-178 354,-178 360,-184 360,-190 360,-190 360,-202 360,-202 360,-208 354,-214 348,-214"/>
<text text-anchor="middle" x="306" y="-192.3" font-family="Arial" font-size="14.00" fill="#000000">cpu_side_ports</text>
</g>
<!-- board_system_port&#45;&gt;board_cache_hierarchy_membus_cpu_side_ports -->
<g id="edge1" class="edge">
<title>board_system_port&#45;&gt;board_cache_hierarchy_membus_cpu_side_ports</title>
<path fill="none" stroke="black" d="M81.16,-361.74C92.25,-346.24 110.79,-324.37 133,-314 155.21,-303.63 222.23,-319.01 243,-306 272.6,-287.46 289.79,-249.6 298.53,-223.76"/>
<polygon fill="black" stroke="black" points="301.89,-224.77 301.58,-214.18 295.21,-222.65 301.89,-224.77"/>
</g>
<!-- board_processor_cores_core_icache_port -->
<g id="node2" class="node">
<title>board_processor_cores_core_icache_port</title>
<path fill="#959ead" stroke="#000000" d="M754,-398C754,-398 692,-398 692,-398 686,-398 680,-392 680,-386 680,-386 680,-374 680,-374 680,-368 686,-362 692,-362 692,-362 754,-362 754,-362 760,-362 766,-368 766,-374 766,-374 766,-386 766,-386 766,-392 760,-398 754,-398"/>
<text text-anchor="middle" x="723" y="-376.3" font-family="Arial" font-size="14.00" fill="#000000">icache_port</text>
</g>
<!-- board_cache_hierarchy_l1i&#45;cache&#45;0_cpu_side -->
<g id="node15" class="node">
<title>board_cache_hierarchy_l1i&#45;cache&#45;0_cpu_side</title>
<path fill="#7f7c77" stroke="#000000" d="M735.5,-84C735.5,-84 688.5,-84 688.5,-84 682.5,-84 676.5,-78 676.5,-72 676.5,-72 676.5,-60 676.5,-60 676.5,-54 682.5,-48 688.5,-48 688.5,-48 735.5,-48 735.5,-48 741.5,-48 747.5,-54 747.5,-60 747.5,-60 747.5,-72 747.5,-72 747.5,-78 741.5,-84 735.5,-84"/>
<text text-anchor="middle" x="712" y="-62.3" font-family="Arial" font-size="14.00" fill="#000000">cpu_side</text>
</g>
<!-- board_processor_cores_core_icache_port&#45;&gt;board_cache_hierarchy_l1i&#45;cache&#45;0_cpu_side -->
<g id="edge2" class="edge">
<title>board_processor_cores_core_icache_port&#45;&gt;board_cache_hierarchy_l1i&#45;cache&#45;0_cpu_side</title>
<path fill="none" stroke="black" d="M722.39,-361.78C720.58,-310.32 715.19,-157.37 712.97,-94.48"/>
<polygon fill="black" stroke="black" points="716.46,-94.04 712.61,-84.17 709.46,-94.28 716.46,-94.04"/>
</g>
<!-- board_processor_cores_core_dcache_port -->
<g id="node3" class="node">
<title>board_processor_cores_core_dcache_port</title>
<path fill="#959ead" stroke="#000000" d="M863.5,-398C863.5,-398 796.5,-398 796.5,-398 790.5,-398 784.5,-392 784.5,-386 784.5,-386 784.5,-374 784.5,-374 784.5,-368 790.5,-362 796.5,-362 796.5,-362 863.5,-362 863.5,-362 869.5,-362 875.5,-368 875.5,-374 875.5,-374 875.5,-386 875.5,-386 875.5,-392 869.5,-398 863.5,-398"/>
<text text-anchor="middle" x="830" y="-376.3" font-family="Arial" font-size="14.00" fill="#000000">dcache_port</text>
</g>
<!-- board_cache_hierarchy_l1d&#45;cache&#45;0_cpu_side -->
<g id="node17" class="node">
<title>board_cache_hierarchy_l1d&#45;cache&#45;0_cpu_side</title>
<path fill="#7f7c77" stroke="#000000" d="M929.5,-84C929.5,-84 882.5,-84 882.5,-84 876.5,-84 870.5,-78 870.5,-72 870.5,-72 870.5,-60 870.5,-60 870.5,-54 876.5,-48 882.5,-48 882.5,-48 929.5,-48 929.5,-48 935.5,-48 941.5,-54 941.5,-60 941.5,-60 941.5,-72 941.5,-72 941.5,-78 935.5,-84 929.5,-84"/>
<text text-anchor="middle" x="906" y="-62.3" font-family="Arial" font-size="14.00" fill="#000000">cpu_side</text>
</g>
<!-- board_processor_cores_core_dcache_port&#45;&gt;board_cache_hierarchy_l1d&#45;cache&#45;0_cpu_side -->
<g id="edge3" class="edge">
<title>board_processor_cores_core_dcache_port&#45;&gt;board_cache_hierarchy_l1d&#45;cache&#45;0_cpu_side</title>
<path fill="none" stroke="black" d="M834.19,-361.78C846.76,-310.22 884.14,-156.74 899.4,-94.09"/>
<polygon fill="black" stroke="black" points="902.85,-94.71 901.82,-84.17 896.05,-93.05 902.85,-94.71"/>
</g>
<!-- board_processor_cores_core_mmu_itb_walker_port -->
<g id="node4" class="node">
<title>board_processor_cores_core_mmu_itb_walker_port</title>
<path fill="#6a6863" stroke="#000000" d="M546,-398C546,-398 516,-398 516,-398 510,-398 504,-392 504,-386 504,-386 504,-374 504,-374 504,-368 510,-362 516,-362 516,-362 546,-362 546,-362 552,-362 558,-368 558,-374 558,-374 558,-386 558,-386 558,-392 552,-398 546,-398"/>
<text text-anchor="middle" x="531" y="-376.3" font-family="Arial" font-size="14.00" fill="#000000">port</text>
</g>
<!-- board_processor_cores_core_mmu_itb_walker_port&#45;&gt;board_cache_hierarchy_membus_cpu_side_ports -->
<g id="edge4" class="edge">
<title>board_processor_cores_core_mmu_itb_walker_port&#45;&gt;board_cache_hierarchy_membus_cpu_side_ports</title>
<path fill="none" stroke="black" d="M520.71,-361.82C510.98,-347.02 495.06,-326.18 476,-314 464.74,-306.8 458.96,-311.98 447,-306 402.17,-283.58 357.61,-245.89 330.93,-221.23"/>
<polygon fill="black" stroke="black" points="333.26,-218.61 323.57,-214.33 328.48,-223.72 333.26,-218.61"/>
</g>
<!-- board_processor_cores_core_mmu_dtb_walker_port -->
<g id="node5" class="node">
<title>board_processor_cores_core_mmu_dtb_walker_port</title>
<path fill="#6a6863" stroke="#000000" d="M362,-398C362,-398 332,-398 332,-398 326,-398 320,-392 320,-386 320,-386 320,-374 320,-374 320,-368 326,-362 332,-362 332,-362 362,-362 362,-362 368,-362 374,-368 374,-374 374,-374 374,-386 374,-386 374,-392 368,-398 362,-398"/>
<text text-anchor="middle" x="347" y="-376.3" font-family="Arial" font-size="14.00" fill="#000000">port</text>
</g>
<!-- board_processor_cores_core_mmu_dtb_walker_port&#45;&gt;board_cache_hierarchy_membus_cpu_side_ports -->
<g id="edge5" class="edge">
<title>board_processor_cores_core_mmu_dtb_walker_port&#45;&gt;board_cache_hierarchy_membus_cpu_side_ports</title>
<path fill="none" stroke="black" d="M343.14,-361.88C336,-330.17 320.66,-262.09 312.1,-224.08"/>
<polygon fill="black" stroke="black" points="315.49,-223.2 309.88,-214.21 308.66,-224.73 315.49,-223.2"/>
</g>
<!-- board_memory_mem_ctrl_port -->
<g id="node6" class="node">
<title>board_memory_mem_ctrl_port</title>
<path fill="#7f7c77" stroke="#000000" d="M190,-398C190,-398 160,-398 160,-398 154,-398 148,-392 148,-386 148,-386 148,-374 148,-374 148,-368 154,-362 160,-362 160,-362 190,-362 190,-362 196,-362 202,-368 202,-374 202,-374 202,-386 202,-386 202,-392 196,-398 190,-398"/>
<text text-anchor="middle" x="175" y="-376.3" font-family="Arial" font-size="14.00" fill="#000000">port</text>
</g>
<!-- board_cache_hierarchy_membus_mem_side_ports -->
<g id="node8" class="node">
<title>board_cache_hierarchy_membus_mem_side_ports</title>
<path fill="#586070" stroke="#000000" d="M222,-214C222,-214 128,-214 128,-214 122,-214 116,-208 116,-202 116,-202 116,-190 116,-190 116,-184 122,-178 128,-178 128,-178 222,-178 222,-178 228,-178 234,-184 234,-190 234,-190 234,-202 234,-202 234,-208 228,-214 222,-214"/>
<text text-anchor="middle" x="175" y="-192.3" font-family="Arial" font-size="14.00" fill="#000000">mem_side_ports</text>
</g>
<!-- board_memory_mem_ctrl_port&#45;&gt;board_cache_hierarchy_membus_mem_side_ports -->
<g id="edge6" class="edge">
<title>board_memory_mem_ctrl_port&#45;&gt;board_cache_hierarchy_membus_mem_side_ports</title>
<path fill="none" stroke="black" d="M175,-351.54C175,-313.49 175,-245.85 175,-214.21"/>
<polygon fill="black" stroke="black" points="171.5,-351.88 175,-361.88 178.5,-351.88 171.5,-351.88"/>
</g>
<!-- board_cache_hierarchy_l2&#45;cache&#45;0_mem_side -->
<g id="node14" class="node">
<title>board_cache_hierarchy_l2&#45;cache&#45;0_mem_side</title>
<path fill="#7f7c77" stroke="#000000" d="M452,-84C452,-84 396,-84 396,-84 390,-84 384,-78 384,-72 384,-72 384,-60 384,-60 384,-54 390,-48 396,-48 396,-48 452,-48 452,-48 458,-48 464,-54 464,-60 464,-60 464,-72 464,-72 464,-78 458,-84 452,-84"/>
<text text-anchor="middle" x="424" y="-62.3" font-family="Arial" font-size="14.00" fill="#000000">mem_side</text>
</g>
<!-- board_cache_hierarchy_membus_cpu_side_ports&#45;&gt;board_cache_hierarchy_l2&#45;cache&#45;0_mem_side -->
<g id="edge7" class="edge">
<title>board_cache_hierarchy_membus_cpu_side_ports&#45;&gt;board_cache_hierarchy_l2&#45;cache&#45;0_mem_side</title>
<path fill="none" stroke="black" d="M328.7,-170.37C351.95,-145.16 387.49,-106.6 407.96,-84.4"/>
<polygon fill="black" stroke="black" points="326.12,-168.01 321.91,-177.74 331.27,-172.76 326.12,-168.01"/>
</g>
<!-- board_cache_hierarchy_membus_default -->
<g id="node9" class="node">
<title>board_cache_hierarchy_membus_default</title>
<path fill="#586070" stroke="#000000" d="M85.5,-214C85.5,-214 52.5,-214 52.5,-214 46.5,-214 40.5,-208 40.5,-202 40.5,-202 40.5,-190 40.5,-190 40.5,-184 46.5,-178 52.5,-178 52.5,-178 85.5,-178 85.5,-178 91.5,-178 97.5,-184 97.5,-190 97.5,-190 97.5,-202 97.5,-202 97.5,-208 91.5,-214 85.5,-214"/>
<text text-anchor="middle" x="69" y="-192.3" font-family="Arial" font-size="14.00" fill="#000000">default</text>
</g>
<!-- board_cache_hierarchy_membus_badaddr_responder_pio -->
<g id="node10" class="node">
<title>board_cache_hierarchy_membus_badaddr_responder_pio</title>
<path fill="#9f8575" stroke="#000000" d="M90,-84C90,-84 60,-84 60,-84 54,-84 48,-78 48,-72 48,-72 48,-60 48,-60 48,-54 54,-48 60,-48 60,-48 90,-48 90,-48 96,-48 102,-54 102,-60 102,-60 102,-72 102,-72 102,-78 96,-84 90,-84"/>
<text text-anchor="middle" x="75" y="-62.3" font-family="Arial" font-size="14.00" fill="#000000">pio</text>
</g>
<!-- board_cache_hierarchy_membus_default&#45;&gt;board_cache_hierarchy_membus_badaddr_responder_pio -->
<g id="edge8" class="edge">
<title>board_cache_hierarchy_membus_default&#45;&gt;board_cache_hierarchy_membus_badaddr_responder_pio</title>
<path fill="none" stroke="black" d="M69.81,-177.74C70.81,-156.36 72.53,-119.69 73.71,-94.44"/>
<polygon fill="black" stroke="black" points="77.21,-94.55 74.18,-84.4 70.22,-94.22 77.21,-94.55"/>
</g>
<!-- board_cache_hierarchy_l2buses_cpu_side_ports -->
<g id="node11" class="node">
<title>board_cache_hierarchy_l2buses_cpu_side_ports</title>
<path fill="#586070" stroke="#000000" d="M691,-214C691,-214 607,-214 607,-214 601,-214 595,-208 595,-202 595,-202 595,-190 595,-190 595,-184 601,-178 607,-178 607,-178 691,-178 691,-178 697,-178 703,-184 703,-190 703,-190 703,-202 703,-202 703,-208 697,-214 691,-214"/>
<text text-anchor="middle" x="649" y="-192.3" font-family="Arial" font-size="14.00" fill="#000000">cpu_side_ports</text>
</g>
<!-- board_cache_hierarchy_l1i&#45;cache&#45;0_mem_side -->
<g id="node16" class="node">
<title>board_cache_hierarchy_l1i&#45;cache&#45;0_mem_side</title>
<path fill="#7f7c77" stroke="#000000" d="M646,-84C646,-84 590,-84 590,-84 584,-84 578,-78 578,-72 578,-72 578,-60 578,-60 578,-54 584,-48 590,-48 590,-48 646,-48 646,-48 652,-48 658,-54 658,-60 658,-60 658,-72 658,-72 658,-78 652,-84 646,-84"/>
<text text-anchor="middle" x="618" y="-62.3" font-family="Arial" font-size="14.00" fill="#000000">mem_side</text>
</g>
<!-- board_cache_hierarchy_l2buses_cpu_side_ports&#45;&gt;board_cache_hierarchy_l1i&#45;cache&#45;0_mem_side -->
<g id="edge9" class="edge">
<title>board_cache_hierarchy_l2buses_cpu_side_ports&#45;&gt;board_cache_hierarchy_l1i&#45;cache&#45;0_mem_side</title>
<path fill="none" stroke="black" d="M642.39,-167.72C636.29,-142.52 627.41,-105.84 622.21,-84.4"/>
<polygon fill="black" stroke="black" points="639.06,-168.84 644.82,-177.74 645.87,-167.19 639.06,-168.84"/>
</g>
<!-- board_cache_hierarchy_l1d&#45;cache&#45;0_mem_side -->
<g id="node18" class="node">
<title>board_cache_hierarchy_l1d&#45;cache&#45;0_mem_side</title>
<path fill="#7f7c77" stroke="#000000" d="M840,-84C840,-84 784,-84 784,-84 778,-84 772,-78 772,-72 772,-72 772,-60 772,-60 772,-54 778,-48 784,-48 784,-48 840,-48 840,-48 846,-48 852,-54 852,-60 852,-60 852,-72 852,-72 852,-78 846,-84 840,-84"/>
<text text-anchor="middle" x="812" y="-62.3" font-family="Arial" font-size="14.00" fill="#000000">mem_side</text>
</g>
<!-- board_cache_hierarchy_l2buses_cpu_side_ports&#45;&gt;board_cache_hierarchy_l1d&#45;cache&#45;0_mem_side -->
<g id="edge10" class="edge">
<title>board_cache_hierarchy_l2buses_cpu_side_ports&#45;&gt;board_cache_hierarchy_l1d&#45;cache&#45;0_mem_side</title>
<path fill="none" stroke="black" d="M694.43,-173.09C715.51,-161.79 740.23,-146.83 760,-130 775.87,-116.49 790.66,-97.72 800.38,-84.19"/>
<polygon fill="black" stroke="black" points="692.56,-170.12 685.33,-177.87 695.81,-176.32 692.56,-170.12"/>
</g>
<!-- board_cache_hierarchy_l2buses_mem_side_ports -->
<g id="node12" class="node">
<title>board_cache_hierarchy_l2buses_mem_side_ports</title>
<path fill="#586070" stroke="#000000" d="M565,-214C565,-214 471,-214 471,-214 465,-214 459,-208 459,-202 459,-202 459,-190 459,-190 459,-184 465,-178 471,-178 471,-178 565,-178 565,-178 571,-178 577,-184 577,-190 577,-190 577,-202 577,-202 577,-208 571,-214 565,-214"/>
<text text-anchor="middle" x="518" y="-192.3" font-family="Arial" font-size="14.00" fill="#000000">mem_side_ports</text>
</g>
<!-- board_cache_hierarchy_l2&#45;cache&#45;0_cpu_side -->
<g id="node13" class="node">
<title>board_cache_hierarchy_l2&#45;cache&#45;0_cpu_side</title>
<path fill="#7f7c77" stroke="#000000" d="M541.5,-84C541.5,-84 494.5,-84 494.5,-84 488.5,-84 482.5,-78 482.5,-72 482.5,-72 482.5,-60 482.5,-60 482.5,-54 488.5,-48 494.5,-48 494.5,-48 541.5,-48 541.5,-48 547.5,-48 553.5,-54 553.5,-60 553.5,-60 553.5,-72 553.5,-72 553.5,-78 547.5,-84 541.5,-84"/>
<text text-anchor="middle" x="518" y="-62.3" font-family="Arial" font-size="14.00" fill="#000000">cpu_side</text>
</g>
<!-- board_cache_hierarchy_l2buses_mem_side_ports&#45;&gt;board_cache_hierarchy_l2&#45;cache&#45;0_cpu_side -->
<g id="edge11" class="edge">
<title>board_cache_hierarchy_l2buses_mem_side_ports&#45;&gt;board_cache_hierarchy_l2&#45;cache&#45;0_cpu_side</title>
<path fill="none" stroke="black" d="M518,-177.74C518,-156.36 518,-119.69 518,-94.44"/>
<polygon fill="black" stroke="black" points="521.5,-94.4 518,-84.4 514.5,-94.4 521.5,-94.4"/>
</g>
</g>
</svg>
